<svg fill="#efefef" width="1024" height="1024" xmlns="http://www.w3.org/2000/svg" t="1664687554062" class="icon" version="1.1" p-id="2052">
 <g>
  <title>Layer 1</title>
  <path d="m512,1024c-56.096,-89.344 -97.184,-137.728 -123.296,-145.184c-187.488,-53.568 -324.704,-226.144 -324.704,-430.816c0,-247.424 200.576,-448 448,-448s448,200.576 448,448c0,203.168 -135.232,374.72 -320.608,429.632c-26.88,7.968 -69.376,56.768 -127.392,146.368zm-139.776,-256.032c27.136,17.6 63.04,28.32 107.776,32.032c56.896,4.736 142.24,4.736 256,0l96,-96c-73.472,17.152 -134.4,30.112 -182.72,38.848a367.968,367.968 0 0 0 198.72,-326.848c0,-203.232 -164.768,-368 -368,-368s-368,164.768 -368,368c0,165.76 109.568,305.92 260.224,351.968zm107.776,-31.968c176.736,0 320,-143.264 320,-320s-143.264,-320 -320,-320s-320,143.264 -320,320s143.264,320 320,320zm-49.376,-443.424a69.824,69.824 0 1 1 98.752,-98.752a69.824,69.824 0 0 1 -98.752,98.752zm-172.8,172.8a69.824,69.824 0 1 1 98.752,-98.752a69.824,69.824 0 0 1 -98.752,98.752zm345.6,0a69.824,69.824 0 1 1 98.752,-98.752a69.824,69.824 0 0 1 -98.752,98.752zm-172.8,172.8a69.824,69.824 0 1 1 98.752,-98.752a69.824,69.824 0 0 1 -98.752,98.752zm49.376,-190.176a32,32 0 1 1 0,-64a32,32 0 0 1 0,64zm0,304c-185.568,0 -336,-150.432 -336,-336s150.432,-336 336,-336s336,150.432 336,336s-150.432,336 -336,336z" p-id="2053" id="svg_1"/>
 </g>
</svg>